<svg width="498" height="163" fill="none" xmlns="http://www.w3.org/2000/svg"><path stroke="#EB2360" stroke-width="4" d="M146.807 44.247l-29.558 14.877M145.908 44.456h323.625M164.224 125.606l-51.475 23.317M163.398 125.819h333.984"/><path d="M70.697 60.021a45.653 45.653 0 1045.653 45.653 45.704 45.704 0 00-45.653-45.653zm39.863 40.164l-6.155 3.088a2.679 2.679 0 00-1.377 1.662l-5.18 18.13-1.88 1.88 1.546-10.82a2.685 2.685 0 00-1.458-2.785l-9.638-4.818-2.21-8.905 2.164-8.66 6.658-2.218a2.685 2.685 0 001.837-2.549v-5.37c0-.713-.284-1.396-.787-1.9l-3.975-3.974 1.013-1.933a40.31 40.31 0 0119.442 29.172zM57.308 67.728l5.333 6.663v2.148l-13.87 2.312a2.686 2.686 0 00-2.243 2.654v4.345l-4.565-1.499a2.686 2.686 0 00-3.389 1.706l-2.659 8.032a2.687 2.687 0 00.4 2.454l8.057 10.742c.394.526.967.889 1.611 1.02l13.073 2.616 7.552 3.776-6.056 8.115c-.212.28-.366.6-.451.94l-2.766 10.796a2.702 2.702 0 000 1.318l2.118 8.465a39.907 39.907 0 01-3.845-1.343l-1.06-8.134a2.681 2.681 0 00-.766-1.552l-9.372-9.373 1.82-3.641a2.684 2.684 0 00-.102-2.583l-8.056-13.428a2.687 2.687 0 00-1.646-1.222l-5.82-1.463a40.345 40.345 0 0126.702-33.864zm-26.82 39.382l3.566.897 6.714 11.212-2.028 4.053a2.683 2.683 0 00.505 3.099l10.095 10.097.47 3.59a40.236 40.236 0 01-19.322-32.948zm40.21 38.846a40.56 40.56 0 01-5.371-.403l-2.6-10.339 2.463-9.625 7.656-10.248a2.679 2.679 0 00.462-2.226 2.686 2.686 0 00-1.413-1.783l-10.742-5.371a2.676 2.676 0 00-.674-.228l-12.42-2.487-6.598-8.797 1.375-4.155 5.535 1.824a2.684 2.684 0 003.528-2.557v-5.782l13.87-2.312a2.685 2.685 0 002.243-2.648v-5.37c0-.61-.207-1.203-.588-1.68l-4.493-5.61a40.067 40.067 0 0123.412 2.396l-1.912 3.647a2.687 2.687 0 00.48 3.145l4.585 4.584v2.323l-6.22 2.073a2.685 2.685 0 00-1.756 1.896l-2.686 10.742a2.683 2.683 0 000 1.305l2.686 10.742a2.682 2.682 0 001.404 1.751l9.01 4.503-2.417 16.881a2.687 2.687 0 003.094 3.04 2.684 2.684 0 001.471-.76l8.057-8.056c.322-.323.557-.722.682-1.161l5.048-17.665 3.097-1.554a40.322 40.322 0 01-40.269 39.965z" fill="#E5E5E5"/><path d="M118.383 56.648a2.69 2.69 0 00-2.992-.439c-.322.157-.61.377-.846.646l-3.834 4.382a45.28 45.28 0 00-10.412-24.378C88.617 23.037 73.001 2.225 72.846 2.015A2.686 2.686 0 0070.834.941a2.748 2.748 0 00-2.108.86c-.043.048-4.39 4.753-10.742 11.96a34.91 34.91 0 00-8.475 18.6l-2.022-2.022a2.742 2.742 0 00-2.012-.784 2.685 2.685 0 00-1.938.95c-9.241 10.94-17.622 21.524-24.24 30.614a51.078 51.078 0 00-8.861 39.632l-5.567-2.798a2.685 2.685 0 00-3.875 2.148 32.048 32.048 0 00-.119 2.887c0 35.889 27.408 59.08 69.822 59.08s69.822-23.191 69.822-59.08c0-15.307-9.104-34.374-22.136-46.34zM70.697 156.697c-38.482 0-63.578-20.364-64.43-52.038l6.835 3.432a2.681 2.681 0 002.867-.295 2.689 2.689 0 00.95-2.721l-.806-3.443a45.705 45.705 0 017.532-37.357c6.088-8.36 13.696-18.02 22.115-28.066l4.243 4.24a2.685 2.685 0 004.582-1.912v-1.646a29.54 29.54 0 017.414-19.569 883.305 883.305 0 018.502-9.5c4.587 6.055 16.381 21.483 25.7 32.493a40.05 40.05 0 019.407 25.883v1.88a2.685 2.685 0 004.705 1.769l6.418-7.334c10.941 11.064 18.417 27.333 18.417 40.475 0 32.626-25.297 53.709-64.45 53.709z" fill="#EB2360"/></svg>